<mxfile host="app.diagrams.net" agent="Mozilla/5.0 (Windows NT 10.0; Win64; x64) AppleWebKit/537.36 (KHTML, like Gecko) Chrome/132.0.0.0 Safari/537.36" version="26.0.10">
  <diagram name="Pagina-1" id="30odDU8NoAjhxNvlGNRI">
    <mxGraphModel dx="2950" dy="933" grid="1" gridSize="10" guides="1" tooltips="1" connect="1" arrows="1" fold="1" page="1" pageScale="1" pageWidth="1169" pageHeight="827" math="0" shadow="0">
      <root>
        <mxCell id="0" />
        <mxCell id="1" parent="0" />
        <mxCell id="eiMYP8B4UqxCLk-Wde4F-3" value="" style="edgeStyle=orthogonalEdgeStyle;rounded=0;orthogonalLoop=1;jettySize=auto;html=1;" edge="1" parent="1" source="eiMYP8B4UqxCLk-Wde4F-1">
          <mxGeometry relative="1" as="geometry">
            <mxPoint x="560" y="190" as="targetPoint" />
          </mxGeometry>
        </mxCell>
        <mxCell id="eiMYP8B4UqxCLk-Wde4F-1" value="START" style="ellipse;whiteSpace=wrap;html=1;" vertex="1" parent="1">
          <mxGeometry x="500" y="30" width="120" height="80" as="geometry" />
        </mxCell>
        <mxCell id="eiMYP8B4UqxCLk-Wde4F-70" value="" style="edgeStyle=orthogonalEdgeStyle;rounded=0;orthogonalLoop=1;jettySize=auto;html=1;" edge="1" parent="1" source="eiMYP8B4UqxCLk-Wde4F-26" target="eiMYP8B4UqxCLk-Wde4F-69">
          <mxGeometry relative="1" as="geometry" />
        </mxCell>
        <mxCell id="eiMYP8B4UqxCLk-Wde4F-76" value="TRUE" style="edgeLabel;html=1;align=center;verticalAlign=middle;resizable=0;points=[];" vertex="1" connectable="0" parent="eiMYP8B4UqxCLk-Wde4F-70">
          <mxGeometry x="-0.7547" y="-4" relative="1" as="geometry">
            <mxPoint as="offset" />
          </mxGeometry>
        </mxCell>
        <mxCell id="eiMYP8B4UqxCLk-Wde4F-26" value="I&amp;lt;10&amp;nbsp;" style="rhombus;whiteSpace=wrap;html=1;" vertex="1" parent="1">
          <mxGeometry x="505" y="350" width="110" height="110" as="geometry" />
        </mxCell>
        <mxCell id="eiMYP8B4UqxCLk-Wde4F-36" value="" style="edgeStyle=orthogonalEdgeStyle;rounded=0;orthogonalLoop=1;jettySize=auto;html=1;" edge="1" parent="1" source="eiMYP8B4UqxCLk-Wde4F-27" target="eiMYP8B4UqxCLk-Wde4F-35">
          <mxGeometry relative="1" as="geometry" />
        </mxCell>
        <mxCell id="eiMYP8B4UqxCLk-Wde4F-27" value="read n&amp;nbsp;" style="shape=parallelogram;perimeter=parallelogramPerimeter;whiteSpace=wrap;html=1;fixedSize=1;" vertex="1" parent="1">
          <mxGeometry x="470" y="590" width="120" height="60" as="geometry" />
        </mxCell>
        <mxCell id="eiMYP8B4UqxCLk-Wde4F-34" style="edgeStyle=orthogonalEdgeStyle;rounded=0;orthogonalLoop=1;jettySize=auto;html=1;exitX=0.5;exitY=1;exitDx=0;exitDy=0;" edge="1" parent="1" source="eiMYP8B4UqxCLk-Wde4F-33" target="eiMYP8B4UqxCLk-Wde4F-26">
          <mxGeometry relative="1" as="geometry" />
        </mxCell>
        <mxCell id="eiMYP8B4UqxCLk-Wde4F-33" value="positivi = 0&lt;div&gt;negativi = 0&lt;/div&gt;&lt;div&gt;&amp;nbsp;positivi_pari_e_grandi_20 = 0&lt;br/&gt;    negativi_dispari_o_meno_10 = 0&lt;/div&gt;" style="rounded=0;whiteSpace=wrap;html=1;" vertex="1" parent="1">
          <mxGeometry x="460" y="190" width="200" height="90" as="geometry" />
        </mxCell>
        <mxCell id="eiMYP8B4UqxCLk-Wde4F-40" value="" style="edgeStyle=orthogonalEdgeStyle;rounded=0;orthogonalLoop=1;jettySize=auto;html=1;" edge="1" parent="1" source="eiMYP8B4UqxCLk-Wde4F-35" target="eiMYP8B4UqxCLk-Wde4F-39">
          <mxGeometry relative="1" as="geometry" />
        </mxCell>
        <mxCell id="eiMYP8B4UqxCLk-Wde4F-41" value="TRUE" style="edgeLabel;html=1;align=center;verticalAlign=middle;resizable=0;points=[];" vertex="1" connectable="0" parent="eiMYP8B4UqxCLk-Wde4F-40">
          <mxGeometry x="0.1091" relative="1" as="geometry">
            <mxPoint as="offset" />
          </mxGeometry>
        </mxCell>
        <mxCell id="eiMYP8B4UqxCLk-Wde4F-43" value="" style="edgeStyle=orthogonalEdgeStyle;rounded=0;orthogonalLoop=1;jettySize=auto;html=1;" edge="1" parent="1" source="eiMYP8B4UqxCLk-Wde4F-35" target="eiMYP8B4UqxCLk-Wde4F-42">
          <mxGeometry relative="1" as="geometry" />
        </mxCell>
        <mxCell id="eiMYP8B4UqxCLk-Wde4F-44" value="FALSE" style="edgeLabel;html=1;align=center;verticalAlign=middle;resizable=0;points=[];" vertex="1" connectable="0" parent="eiMYP8B4UqxCLk-Wde4F-43">
          <mxGeometry x="-0.2444" relative="1" as="geometry">
            <mxPoint as="offset" />
          </mxGeometry>
        </mxCell>
        <mxCell id="eiMYP8B4UqxCLk-Wde4F-35" value="n&amp;gt;0" style="rhombus;whiteSpace=wrap;html=1;" vertex="1" parent="1">
          <mxGeometry x="490" y="710" width="80" height="80" as="geometry" />
        </mxCell>
        <mxCell id="eiMYP8B4UqxCLk-Wde4F-57" value="" style="edgeStyle=orthogonalEdgeStyle;rounded=0;orthogonalLoop=1;jettySize=auto;html=1;" edge="1" parent="1" source="eiMYP8B4UqxCLk-Wde4F-39" target="eiMYP8B4UqxCLk-Wde4F-56">
          <mxGeometry relative="1" as="geometry" />
        </mxCell>
        <mxCell id="eiMYP8B4UqxCLk-Wde4F-39" value="positivi += 1" style="whiteSpace=wrap;html=1;" vertex="1" parent="1">
          <mxGeometry x="700" y="720" width="120" height="60" as="geometry" />
        </mxCell>
        <mxCell id="eiMYP8B4UqxCLk-Wde4F-59" value="" style="edgeStyle=orthogonalEdgeStyle;rounded=0;orthogonalLoop=1;jettySize=auto;html=1;" edge="1" parent="1" source="eiMYP8B4UqxCLk-Wde4F-42">
          <mxGeometry relative="1" as="geometry">
            <mxPoint x="150" y="750" as="targetPoint" />
          </mxGeometry>
        </mxCell>
        <mxCell id="eiMYP8B4UqxCLk-Wde4F-42" value="negativi += 1" style="whiteSpace=wrap;html=1;" vertex="1" parent="1">
          <mxGeometry x="250" y="720" width="120" height="60" as="geometry" />
        </mxCell>
        <mxCell id="eiMYP8B4UqxCLk-Wde4F-62" value="" style="edgeStyle=orthogonalEdgeStyle;rounded=0;orthogonalLoop=1;jettySize=auto;html=1;" edge="1" parent="1" source="eiMYP8B4UqxCLk-Wde4F-56" target="eiMYP8B4UqxCLk-Wde4F-61">
          <mxGeometry relative="1" as="geometry" />
        </mxCell>
        <mxCell id="eiMYP8B4UqxCLk-Wde4F-63" value="TRUE" style="edgeLabel;html=1;align=center;verticalAlign=middle;resizable=0;points=[];" vertex="1" connectable="0" parent="eiMYP8B4UqxCLk-Wde4F-62">
          <mxGeometry x="0.04" y="-1" relative="1" as="geometry">
            <mxPoint as="offset" />
          </mxGeometry>
        </mxCell>
        <mxCell id="eiMYP8B4UqxCLk-Wde4F-72" value="" style="edgeStyle=orthogonalEdgeStyle;rounded=0;orthogonalLoop=1;jettySize=auto;html=1;" edge="1" parent="1" source="eiMYP8B4UqxCLk-Wde4F-56" target="eiMYP8B4UqxCLk-Wde4F-67">
          <mxGeometry relative="1" as="geometry" />
        </mxCell>
        <mxCell id="eiMYP8B4UqxCLk-Wde4F-73" value="FALSE" style="edgeLabel;html=1;align=center;verticalAlign=middle;resizable=0;points=[];" vertex="1" connectable="0" parent="eiMYP8B4UqxCLk-Wde4F-72">
          <mxGeometry x="-0.1852" y="1" relative="1" as="geometry">
            <mxPoint as="offset" />
          </mxGeometry>
        </mxCell>
        <mxCell id="eiMYP8B4UqxCLk-Wde4F-56" value="&amp;nbsp;n % 2 == 0&amp;nbsp;&lt;div&gt;and&lt;/div&gt;&lt;div&gt;&amp;nbsp;n&amp;gt; 20&amp;nbsp;&lt;/div&gt;" style="rhombus;whiteSpace=wrap;html=1;" vertex="1" parent="1">
          <mxGeometry x="890" y="690" width="160" height="120" as="geometry" />
        </mxCell>
        <mxCell id="eiMYP8B4UqxCLk-Wde4F-60" value="" style="rhombus;whiteSpace=wrap;html=1;" vertex="1" parent="1">
          <mxGeometry x="-10" y="690" width="160" height="120" as="geometry" />
        </mxCell>
        <mxCell id="eiMYP8B4UqxCLk-Wde4F-74" style="edgeStyle=orthogonalEdgeStyle;rounded=0;orthogonalLoop=1;jettySize=auto;html=1;exitX=0.5;exitY=0;exitDx=0;exitDy=0;entryX=1;entryY=0.5;entryDx=0;entryDy=0;" edge="1" parent="1" source="eiMYP8B4UqxCLk-Wde4F-61" target="eiMYP8B4UqxCLk-Wde4F-67">
          <mxGeometry relative="1" as="geometry" />
        </mxCell>
        <mxCell id="eiMYP8B4UqxCLk-Wde4F-61" value="&amp;nbsp; positivi_pari_e_grandi_20 = positivi_pari_e_grandi_20 + 1" style="whiteSpace=wrap;html=1;" vertex="1" parent="1">
          <mxGeometry x="1150" y="720" width="170" height="60" as="geometry" />
        </mxCell>
        <mxCell id="eiMYP8B4UqxCLk-Wde4F-75" style="edgeStyle=orthogonalEdgeStyle;rounded=0;orthogonalLoop=1;jettySize=auto;html=1;exitX=0.5;exitY=0;exitDx=0;exitDy=0;entryX=1;entryY=0.5;entryDx=0;entryDy=0;" edge="1" parent="1" source="eiMYP8B4UqxCLk-Wde4F-67" target="eiMYP8B4UqxCLk-Wde4F-26">
          <mxGeometry relative="1" as="geometry" />
        </mxCell>
        <mxCell id="eiMYP8B4UqxCLk-Wde4F-67" value="" style="ellipse;whiteSpace=wrap;html=1;aspect=fixed;" vertex="1" parent="1">
          <mxGeometry x="945" y="595" width="50" height="50" as="geometry" />
        </mxCell>
        <mxCell id="eiMYP8B4UqxCLk-Wde4F-71" style="edgeStyle=orthogonalEdgeStyle;rounded=0;orthogonalLoop=1;jettySize=auto;html=1;exitX=0.5;exitY=1;exitDx=0;exitDy=0;" edge="1" parent="1" source="eiMYP8B4UqxCLk-Wde4F-69" target="eiMYP8B4UqxCLk-Wde4F-27">
          <mxGeometry relative="1" as="geometry" />
        </mxCell>
        <mxCell id="eiMYP8B4UqxCLk-Wde4F-69" value="i + = 1" style="whiteSpace=wrap;html=1;" vertex="1" parent="1">
          <mxGeometry x="480" y="490" width="120" height="60" as="geometry" />
        </mxCell>
      </root>
    </mxGraphModel>
  </diagram>
</mxfile>
